<?xml version="1.0" encoding="utf-8"?>
<!-- Generator: Adobe Illustrator 16.0.0, SVG Export Plug-In . SVG Version: 6.00 Build 0)  -->
<!DOCTYPE svg PUBLIC "-//W3C//DTD SVG 1.1//EN" "http://www.w3.org/Graphics/SVG/1.1/DTD/svg11.dtd">
<svg version="1.1" id="Layer_1" xmlns="http://www.w3.org/2000/svg" xmlns:xlink="http://www.w3.org/1999/xlink" x="0px" y="0px"
	 width="200px" height="200px" viewBox="0 0 200 200" enable-background="new 0 0 200 200" xml:space="preserve">
<rect fill="#FFFFFF" stroke="#000000" stroke-miterlimit="10" width="200" height="200"/>
<g transform="translate(0.000000,297.000000) scale(0.100000,-0.100000)">
	<path fill="#009AAB" d="M1511.65,2224.912c-0.967-2.422-2.422-18.882-2.91-37.764c-0.957-18.394-3.389-37.275-5.811-42.124
		c-6.289-11.616-30.01-23.237-47.93-23.237h-15l1.445-42.119l1.455-42.598l30.498-1.455l30.02-1.45v-95.376
		c0-82.305,1.455-98.271,9.199-115.225c18.398-40.186,66.328-64.395,116.191-58.096c39.697,4.844,39.219,4.355,39.219,46.963v38.242
		h-23.73c-24.199,0-42.598,10.156-44.531,24.209c-0.488,3.877-0.488,41.631,0,83.271l0.479,76.011l32.92,1.45l32.441,1.455
		l1.445,42.598l1.455,42.119h-34.365h-33.896v45.513c0,25.176-1.455,48.901-2.9,53.257c-2.422,6.294-11.133,7.744-43.096,7.744
		C1531.982,2228.301,1512.617,2226.85,1511.65,2224.912z"/>
	<path fill="#009AAB" d="M487.695,2123.242c-11.133-3.872-28.086-14.526-37.28-23.242l-16.943-15.488v18.398v18.877H387.48h-45.996
		v-176.709v-176.709h48.413h48.413v111.348c0,121.045,2.91,137.5,26.143,152.51c31.465,20.81,77.461,11.616,91.504-18.403
		c6.777-14.517,8.232-34.37,8.232-131.196v-114.258h48.408h48.423v115.225c0,105.049,0.967,116.191,9.678,130.229
		c19.854,32.441,69.717,40.19,95.376,15.02c17.427-17.92,20.332-39.712,20.82-154.937v-105.537h45.991h45.996v127.324
		c0,141.86-2.905,161.709-29.536,193.662c-25.171,30.498-47.93,39.697-98.765,39.697c-48.413,0-64.873-5.811-94.893-34.375
		l-16.943-16.46l-11.133,15.01C602.915,2126.631,537.559,2141.157,487.695,2123.242z"/>
	<path fill="#009AAB" d="M1256.025,2127.119c-18.887-5.811-34.385-15.01-48.896-28.564l-13.564-12.593v17.915v17.91h-48.408h-48.418
		v-176.709v-176.709h48.418h48.408v105.537c0,57.617,2.422,112.803,4.854,122.49c11.611,41.641,61.963,61.006,96.826,37.28
		c26.133-17.427,28.564-31.47,28.564-154.917l0.479-110.391h48.887h48.916l-1.943,132.168
		c-2.422,149.595-4.355,160.737-39.209,196.079C1351.885,2126.631,1298.144,2139.707,1256.025,2127.119z"/>
	<path fill="#009AAB" d="M939.394,2115.498c-1.45-2.905-1.938-82.305-1.45-175.254l1.45-169.463h48.418h48.408l1.455,175.742
		l0.977,175.264h-48.423C955.371,2121.787,940.85,2119.853,939.394,2115.498z"/>
</g>
</svg>
