<?xml version="1.0" encoding="utf-8"?>
<!-- Generator: Adobe Illustrator 16.0.0, SVG Export Plug-In . SVG Version: 6.00 Build 0)  -->
<!DOCTYPE svg PUBLIC "-//W3C//DTD SVG 1.1//EN" "http://www.w3.org/Graphics/SVG/1.1/DTD/svg11.dtd">
<svg version="1.1" id="Layer_1" xmlns="http://www.w3.org/2000/svg" xmlns:xlink="http://www.w3.org/1999/xlink" x="0px" y="0px"
	 width="32px" height="32px" viewBox="0 0 32 32" enable-background="new 0 0 32 32" xml:space="preserve">
<g transform="translate(480 96)">
	<path fill="#FFFFFF" d="M-474-92v-2c0-1.105,0.896-2,2-2s2,0.895,2,2v2c0,1.104-0.896,2-2,2S-474-90.895-474-92z M-460-90
		c1.105,0,2-0.896,2-2v-2c0-1.105-0.895-2-2-2c-1.104,0-2,0.895-2,2v2C-462-90.895-461.105-90-460-90z M-452-68h-28v-24h5
		c0,1.652,1.346,3,3,3s3-1.348,3-3h6c0,1.652,1.346,3,3,3s3-1.348,3-3h5V-68L-452-68z M-454-86h-24v16h24V-86L-454-86z M-450-90v24
		h-28v2h30v-26H-450z M-470-84h-4v4h4V-84z M-464-84h-4v4h4V-84z M-458-84h-4v4h4V-84z M-470-78h-4v4h4V-78z M-464-78h-4v4h4V-78z
		 M-458-78h-4v4h4V-78z"/>
</g>
</svg>
