<?xml version="1.0" encoding="utf-8"?>
<!-- Generator: Adobe Illustrator 16.0.0, SVG Export Plug-In . SVG Version: 6.00 Build 0)  -->
<!DOCTYPE svg PUBLIC "-//W3C//DTD SVG 1.1//EN" "http://www.w3.org/Graphics/SVG/1.1/DTD/svg11.dtd">
<svg version="1.1" id="Layer_1" xmlns="http://www.w3.org/2000/svg" xmlns:xlink="http://www.w3.org/1999/xlink" x="0px" y="0px"
	 width="200px" height="200px" viewBox="0 0 200 200" enable-background="new 0 0 200 200" xml:space="preserve">
<rect fill="#FFFFFF" stroke="#000000" stroke-miterlimit="10" width="200" height="200"/>
<g>
	<path fill="#189BD7" d="M82.557,82.137c0.73-3.58,6.59-3.51,7.17,0.11c0.39,3.1,0.15,6.23,0.17,9.34c1.79-0.01,3.58-0.03,5.37-0.04
		c-0.01,2.03,0,4.05,0.01,6.079c-1.78-0.01-3.56-0.029-5.34-0.049c0.02,3.369-0.32,6.78,0.26,10.12
		c0.54,2.551,3.01,3.779,5.07,4.949c-0.02,2.531-0.04,5.051-0.09,7.58c-3.97-1-8.01-2.76-10.29-6.35
		c-3.45-4.709-2.38-10.84-2.52-16.29c-1.03,0.02-2.07,0.05-3.11,0.07c0.01-2.041,0.02-4.09,0.02-6.13c0.77,0.02,2.32,0.06,3.09,0.09
		C82.377,88.457,82.167,85.277,82.557,82.137z"/>
	<path fill="#EB6524" d="M36.957,79.887c5.28,0.11,10.56-0.1,15.83,0.06c2.81-0.17,5.19,2.37,4.94,5.16
		c0.1,9.71,0.04,19.439,0.03,29.15c0.25,2.561-1.26,5.49-4.04,5.719c-5.57,0.512-11.18,0.061-16.76,0.221
		c5.02-5.59,10.17-11.051,15.17-16.65c1.84-1.82,2.01-5.049,0.18-6.93C47.337,90.907,42.037,85.497,36.957,79.887z"/>
	<path fill="#189BD7" d="M69.197,80.587c2.57-2.33,7.13-0.86,7.92,2.51c0.9,3.52-3.16,6.8-6.44,5.39
		C67.357,87.487,66.367,82.697,69.197,80.587z"/>
	<path fill="#189BD7" d="M99.897,80.257c2.9-2,7.371,0.28,7.419,3.81c0.23,3.78-4.659,6.17-7.62,3.95
		C96.927,86.377,97.037,81.757,99.897,80.257z"/>
	<path fill="#189BD7" d="M110.587,83.077c-0.19-4.1,6.59-4.91,7.37-0.93c0.561,8.26-0.221,16.57,0.33,24.82
		c0.51,4.75,6.88,7.281,10.54,4.23c3.46-2.359,3.54-8.01,0.19-10.5c-1.801-1.67-4.371-1.32-6.61-1.3c0.02-2.56,0.04-5.11,0.03-7.67
		c7-0.9,14.359,3.39,16.189,10.351c2.391,7.66-3.029,16.41-10.88,17.799c-8,1.91-16.67-4.48-17.08-12.719
		C110.377,99.137,110.518,91.097,110.587,83.077z"/>
	<path fill="#EB6524" d="M30.467,86.737c4.12,4.38,8.17,8.82,12.23,13.25c-4.14,4.379-8.12,8.889-12.21,13.319
		C30.487,104.447,30.517,95.597,30.467,86.737z"/>
	<path fill="#189BD7" d="M68.477,91.577c2.5,0.01,5.01,0.01,7.52,0c-0.05,8.2,0.09,16.411-0.04,24.61c0.34,2.92-3.32,4.9-5.69,3.33
		c-1.91-1.08-1.79-3.52-1.83-5.42C68.487,106.598,68.467,99.087,68.477,91.577z"/>
	<path fill="#189BD7" d="M99.097,117.008c-0.36-8.471-0.03-16.971-0.14-25.451c2.49,0,4.99,0,7.48,0
		c-0.101,8.479,0.199,16.98-0.11,25.46C105.986,120.967,99.437,120.947,99.097,117.008z"/>
	<path fill="#189BD7" d="M150.027,92.567c7.83-3.16,17.449,2.26,18.91,10.53c1.84,7.799-4.23,16.15-12.16,16.949
		c-7.73,1.24-15.67-5.059-16.03-12.91C140.047,100.887,144.127,94.627,150.027,92.567z"/>
	<path fill="#FFFFFF" d="M153.057,99.517c4.17-1.391,8.9,2.25,8.49,6.651c0.061,5.209-6.89,8.41-10.779,4.869
		C146.617,108.008,148.107,100.757,153.057,99.517z"/>
</g>
</svg>
