<?xml version="1.0" encoding="utf-8"?>
<!-- Generator: Adobe Illustrator 16.0.0, SVG Export Plug-In . SVG Version: 6.00 Build 0)  -->
<!DOCTYPE svg PUBLIC "-//W3C//DTD SVG 1.1//EN" "http://www.w3.org/Graphics/SVG/1.1/DTD/svg11.dtd">
<svg version="1.1" id="Layer_1" xmlns="http://www.w3.org/2000/svg" xmlns:xlink="http://www.w3.org/1999/xlink" x="0px" y="0px"
	 width="200px" height="200px" viewBox="0 0 200 200" enable-background="new 0 0 200 200" xml:space="preserve">
<rect fill="#FFFFFF" stroke="#000000" stroke-miterlimit="10" width="200" height="200"/>
<g>
	<path fill="#A8CF40" d="M100.881,73.298c-0.267-0.009-0.552-0.017-0.799-0.011c-0.309-0.007-0.585,0.001-0.798,0.01
		c-2.769,0.131-7.453,1.835-9.529,8.327c-2.183,6.781-1.97,15.792-1.597,22.357c0.319,5.104,2.076,25.438,11.818,26.062
		c9.769-0.585,11.579-21.065,11.898-26.07c0.426-6.598,0.639-15.641-1.53-22.413C108.254,75.076,103.647,73.437,100.881,73.298z"/>
	<path fill="#F68D52" d="M65.107,98.456c2.183-0.975,5.59-2.999,9.104-6.193c1.012-1.058,1.865-2.012,2.662-2.877
		c2.659-3.296,4.844-7.926,4.578-13.53c-0.578-3.938-2.662-7.353-7.399-8.916c-0.692-0.232-1.356-0.414-1.972-0.488
		c-2.925-0.31-5.751,0.055-8.096,1.146c-5.951,2.763-6.865,11.349-10.91,16.028c-0.531,0.598-1.752,1.912-2.928,2.977
		c-0.008-0.193-0.049-0.314-0.057-0.496c-0.101-0.968-0.159-1.927-0.211-2.883c-0.047-0.959-0.1-1.925-0.207-2.901
		c-0.804-4.217-1.936-8.413-4.524-11.263c-0.586-0.62-1.185-1.133-1.816-1.523c-1.866-1.213-3.836-1.621-5.326-1.687
		c-0.268-0.008-0.585-0.008-0.858-0.006c-0.314,0.002-0.623,0.021-0.891,0.041c-3.062,0.267-8.144,2.175-10.38,8.026
		c-2.183,9.298-0.585,20.485,1.202,28.619c0.986,4.426,4.196,16.988,10.4,24.866c1.706,2.023,3.45,3.503,5.651,3.406
		c1.953-0.17,3.24-1.349,4.458-2.873c0.382-0.533,0.753-1.108,1.113-1.753c0.438-0.91,0.827-1.868,1.179-2.933
		c1.18-3.513,1.388-7.133,1.377-10.706c0-0.152,0.004-0.278-0.003-0.579c0.281,0.106,0.652,0.426,0.948,0.532
		c7.656,4.061,13.494,21.399,22.809,16.716c4.639-2.77,6.122-8.735,4.735-14.829c-1.647-5.724-5.003-9.126-9.167-11.895
		c-1.37-0.852-2.771-1.596-4.244-2.119c-1.175-0.329-2.236-0.648-3.194-0.892c0.106-0.076,0.213-0.182,0.319-0.185
		c-0.012,0.002-0.056,0.002-0.107-0.005c0.107-0.09,0.213-0.1,0.32-0.1C64.148,98.867,64.626,98.651,65.107,98.456z"/>
	<g>
		<path fill="#A6C0CA" d="M135.83,139.532c1.064,0.32,2.449-0.318,2.688-1.548c0.136-0.476,0.08-1.008-0.133-1.508
			c-0.213-0.352-0.532-0.716-0.957-0.884c-0.107-0.106-0.32-0.106-0.468-0.208c-1.015-0.218-2.088,0.208-2.515,1.06
			C133.807,137.703,134.378,139.214,135.83,139.532z"/>
		<path fill="#A6C0CA" d="M75.788,141.614c0.393,0.117,0.817,0.367,1.246,0.367c0.526,0,0.711-0.32,0.744-0.959
			c-0.213-1.586-1.65-2.342-4.528-2.342c-1.636,0-2.927,0.213-4.046,0.882c-1.222,0.821-1.861,1.954-1.81,3.414
			c0.051,1.134,0.532,2.306,1.653,3.051c0.479,0.532,1.438,1.171,2.875,1.942c0.531,0.293,1.323,0.719,1.544,1.283
			c0.217,0.606-0.266,1.032-0.855,1.032c-1.221-0.095-2.339-0.532-3.406-1.036c-0.317-0.135-0.853-0.561-1.275-0.773c0,0,0,0,0,0
			c0.051,0,0.101,0,0.153,0c-0.092,0-0.135,0-0.156,0c-0.105-0.106-0.267-0.211-0.53-0.212c-0.162,0-0.484,0.329-1.324,0.984
			c-0.637,0.655-1.115,0.979-1.603,0.978c-2.343-0.018-0.428-7.393,0.048-8.564c-0.16-0.318-0.64-0.426-1.453-0.639l-0.331,0.213
			c0.032-0.008-0.926-1.064-1.033-1.08c-0.376-0.41-0.802-0.623-1.278-0.836c-1.049-0.533-2.347-0.746-3.515-0.533
			c-1.755,0.32-3.043,1.598-3.737,3.195c-0.783,1.811-1.052,3.523-1.006,5.323c0.001,0.745,0.063,1.49,0.22,2.035
			c-0.373,0.099-0.75,0.413-1.068,0.625c-0.537,0.32-1.126,0.533-1.764,0.533c-1.326,0-1.053-2.555-1.053-3.406
			c0-0.745,0-1.49,0.005-2.235c0.035-2.023,0.154-4.152-1.231-5.855c-0.637-0.746-1.822-0.959-2.767-0.959
			c-2.273,0.213-3.202,2.236-4.1,4.045c-0.166-0.531-0.438-1.064-0.753-1.49c-0.897-1.49-3.348-1.703-4.608-0.531
			c-0.654,0.531-1.026,0.957-1.554,1.809c0.192-1.916,0.362-2.936,0.361-3.301c0.003-0.852-0.342-1.384-1.033-1.384
			c-0.857,0.028-1.357,0.253-1.688,0.427c-0.324,0.304-0.481,0.697-0.52,1.385c-0.046,0.848-0.217,2.555-0.391,5.643
			c-0.191,2.235-0.357,4.151-0.359,5.534c-0.004,1.703,0.852,2.586,2.377,2.45c0.341,0,0.716-0.747,1.246-2.663
			c0.693-2.767,1.065-4.47,1.326-5.108c0.264-0.746,0.539-1.49,1.062-2.131c0.168-0.172,0.369-0.318,0.594-0.426
			c1.963-0.622,0.905,3.089,0.852,3.94c-0.159,1.171-0.387,2.342-0.384,3.619c0.003,1.383,0.862,2.021,2.576,2.021
			c0.502,0,0.663,0,0.826-0.213c0.163,0,0.382-0.957,0.867-2.873c0.581-2.555,0.914-4.151,1.273-5.212
			c0.527-1.709,1.017-2.737,1.879-2.708c0.789,0.042,0.676,1.425,0.667,1.958c-0.051,1.769-0.197,3.514-0.102,5.217
			c0.054,1.219,0.117,2.767,0.968,3.727c0.64,0.743,1.811,0.969,2.772,0.977c1.269,0.011,2.544-0.759,3.612-1.298
			c0.262-0.105,0.536-0.318,0.749-0.531c0.141,0.213,0.267,0.353,0.426,0.531c0.682,0.852,2.02,1.386,3.664,1.386
			c0.808-0.106,1.657-0.426,2.408-1.064c0.255-0.213,1.835-1.704,1.754-1.899c0.637,1.473,1.811,2.43,3.39,2.217
			c0.815-0.104,1.508-0.426,2.412-1.064c0.076-0.105,0.161-0.187,0.23-0.221c0.653,0.541,1.722,0.854,2.326,1.072
			c1.436,0.517,2.928,0.854,4.47,0.747c1.493-0.108,3.569-0.781,3.569-2.663c0.053-1.915-1.65-2.873-3.087-3.644
			c-1.065-0.613-3.141-1.561-3.141-2.97C71.496,141.343,74.317,141.199,75.788,141.614z M60.477,143.272
			c-0.266,1.584-0.574,3.074-1.123,4.564c-0.42,0.958-1.238,3.192-2.602,3.192c-1.17,0-1.332-1.383-1.303-2.234
			c0.021-1.312,0.178-2.661,0.498-3.938c0.408-1.598,1.23-3.939,3.253-3.939c0.319,0,0.639,0.105,0.958,0.318
			c0.319,0.32,0.479,0.426,0.479,0.746C60.636,141.981,60.636,142.3,60.477,143.272z"/>
		<path fill="#A6C0CA" d="M107.614,140.704c-0.268,0.105-0.759,0.487-1.597,1.17l0,0c0.017-0.556,0.054-0.883,0.013-1.383
			c-0.013-0.426,0.094-1.705-0.405-1.963c-0.246-0.168-0.565-0.272-0.991-0.273c-0.32,0-0.683,0-1.014,0.105
			c-1.01,0.268-0.815,1.614-0.947,2.449c-0.062,1.172-0.062,2.344-0.098,3.514c-0.021,0.731-0.026,1.385-0.024,2.023
			c-0.817,0.852-2.043,1.916-2.043,1.916l-0.052,0.106c-0.03,0-0.054,0-0.054,0c-1.171,0.958-4.143,2.98-5.855,2.66
			c-0.758-0.143-1.278-0.796-1.332-2.234c0,0,0-0.319-0.025-0.639c1.57-0.106,3.007-0.328,4.549-1.171
			c1.12-0.546,2.833-2.342,3.143-3.832c0.452-2.236-1.225-4.152-3.142-4.473c-1.863-0.213-3.407,0.035-4.951,1.181
			c-1.011,0.843-1.437,1.481-1.816,2.149c-0.58,0.928-0.899,1.994-1.059,3.155c-0.213,1.181-0.213,2.458,0.113,3.735
			c-1.284,0.639-2.775,1.702-4.212,1.575c-0.585-0.03-0.919-0.512-1.011-0.951c-0.271-1.369-0.16-3.072-0.106-4.562
			c0.16-3.089,0.213-3.94,0.228-4.579c1.091,0,3.552,0.369,3.875-0.531c0.688-1.764-0.483-2.023-1.277-2.076
			c-0.749-0.055-1.388-0.127-2.083-0.16c0.109-0.853,0.322-2.343,0.212-3.344c-0.175-0.792-1.434-0.702-2.073-0.719
			c-0.962-0.027-1.431,0.442-1.596,1.574c-0.053,0.997-0.16,1.742-0.161,2.701l-2.022,0.213c-0.958,0.105-1.544,0.318-1.544,0.852
			c-0.02,0.746,0.905,1.219,3.034,1.385v0.639c0,0.639,0,1.596-0.053,2.898c-0.054,1.147-0.1,2.105-0.004,2.744
			c0.057,4.151,1.493,6.281,4.2,6.175c1.074,0.106,2.405-0.533,3.363-1.171c0.533-0.321,1.491-0.853,1.704-1.491
			c0.127,0.213,0.266,0.43,0.426,0.639c0.814,1.479,2.661,2.449,4.406,2.267c1.077,0.014,2.49-0.35,4.111-1.511
			c0.426-0.227,0.799-0.543,1.119-0.756l0,0c0.771-0.567,1.517-1.265,2.048-1.703c0,0.319,0,0.639,0,0.957
			c0.054,1.385,0.213,2.024,0.32,2.342c0.105,0.428,0.929,0.641,2.022,0.534c0.426-0.106,0.745-0.321,0.745-0.534
			c0.319-1.563,0.213-4.683,0.959-6.599c0.639-1.426,1.597-2.236,3.087-2.875c0.348,0.425,1.064,0.613,1.722-0.107
			c0.515-0.567,0.408-1.596,0.152-1.916C110.886,139.64,109.095,139.827,107.614,140.704z M94.067,143.259
			c0.372-0.959,1.278-1.811,2.289-1.916c0.959-0.107,1.97,0.531,1.917,1.596c-0.106,1.172-1.172,2.058-2.09,2.557
			c-0.306,0.187-0.67,0.319-0.998,0.426c-0.533,0.106-1.438,0.313-1.779,0.261C93.428,145.282,93.641,144.177,94.067,143.259z"/>
		<path fill="#A6C0CA" d="M170.013,148.369c-0.751,0.639-3.609,2.768-4.157,0.819c-0.209-0.5-0.103-1.139,0.001-1.777
			c0.34-2.342,0.753-4.578,1.198-6.826c0.287-1.547,0.51-3.059,0.827-4.564c0.93-4.792,1.264-4.579,1.382-5.468
			c0.076-0.603-0.751-1.028-2.551-1.241c-0.966-0.167-1.492,0.213-1.493,1.064c-0.001,0.64-0.001,0.959-0.316,2.734
			c-0.321,1.95-0.552,3.973-0.965,5.891c-0.109,0.639-0.311,1.17-0.424,1.757c-0.639-1.352-1.591-2.077-3.061-2.124
			c-1.091-0.061-2.367,0.473-3.113,1.324c-0.75,0.746-1.381,1.777-1.798,2.768c-0.226,0.637-0.435,1.172-0.546,1.811
			c-0.321,1.491-0.536,3.088-0.316,4.685c-0.535,0.319-1.171,0.639-1.708,0.639c-1.276,0-1.062-1.916-0.98-2.661
			c0.021-0.426,0.024-0.852,0.025-1.277c0.105-1.385,0.105-2.875-0.534-4.26c-0.325-0.745-1.065-1.277-1.912-1.596
			c-1.176-0.426-2.474-0.107-3.52,0.639c-0.745,0.639-1.171,1.461-1.599,2.234l0,0l0.005-0.639c0.02-0.745,0.315-2.342-0.216-2.98
			c-0.748-0.852-2.556-0.562-2.981,0.41c-0.315,0.975-0.214,2.039-0.319,3.104c-0.001,0.639-0.089,1.172-0.106,1.703
			c-0.001,1.7-0.106,3.301-0.108,4.967c-0.531,0.144-1.063,0.489-1.489,0.782c-0.46,0.213-1.065,0.531-1.704,0.531
			c-1.044-0.003-1.062-1.489-1.062-2.234c0.01-2.874,0.211-5.323,0.317-6.921c-0.086-0.531-0.852-0.67-1.208-0.744
			c-0.602,0-1.289,0.213-1.667,0.639c-0.319,0.356-0.426,1.064-0.532,1.916c-0.144,1.172-0.213,2.449-0.213,3.62
			c0,0.967,0,1.916,0.106,2.617c0-0.002,0-0.004,0-0.004c-0.125-0.002-0.426,0.26-1.277,0.652c-0.533,0.246-1.704,0.885-2.201,0.141
			c-0.248-0.426-0.248-1.064-0.354-1.49c-0.031-1.384,0.018-2.768,0-4.045c0-2.396-0.213-5.749-3.408-5.749
			c-1.064,0-1.962,0.426-2.698,1.277c-0.389,0.318-0.658,0.744-0.921,1.277c-0.213,0.426-0.426,0.852-0.532,1.17
			c-0.319-0.957-0.795-1.703-1.491-2.021c-2.023-0.886-3.619,0.426-4.897,1.916c0-0.32,0.106-0.639,0.106-0.979
			c0.106-0.831,0.213-1.683,0.106-2.463c-0.019-0.923-0.852-0.962-1.597-0.923c-0.426,0.083-0.958,0.213-1.171,0.639
			c-0.532,0.746-0.319,2.023-0.426,2.98c0,1.066-0.106,2.131-0.106,3.195c-0.213,2.129-0.348,3.938-0.391,5.216
			c-0.051,0.744-0.035,1.491,0.284,1.899c0.635,0.55,1.703,0.869,2.342,0.163c0.532-0.571,0.587-1.424,0.85-2.062
			c0.641-2.555,1.066-4.101,1.28-4.767c0.11-0.458,0.354-1.088,0.639-1.621c0.318-0.531,0.744-1.172,1.384-0.957
			c0.532,0.256,0.532,0.992,0.532,1.596c-0.106,1.699-0.532,3.301-0.639,4.966c-0.107,0.889,0.02,1.74,0.958,2.166
			c1.064,0.426,2.236,0.431,2.662-0.833c0.354-1.083,0.532-2.287,0.829-3.53c0.131-1.064,0.393-2.129,0.661-3.153
			c0.213-0.68,0.426-1.531,1.004-1.952c1.019-0.444,1.408,0.608,1.398,1.279c-0.002,0.739-0.06,1.378-0.06,2.017
			c-0.001,1.646-0.214,3.406,0.213,5.003c0.505,1.596,1.491,2.236,3.194,2.236c0.64,0,1.703-0.319,2.45-0.745
			c0.638-0.321,1.276-0.804,1.702-1.182c0,0.009,0,0.116,0.1,0.116c0.605,1.17,1.711,1.811,3.308,1.811
			c0.702,0,1.49-0.106,2.129-0.428c0.533-0.213,1.172-0.53,1.647-0.956c0.373,0.743,1.121,1.171,2.214,1.277
			c1.024-0.06,1.463-2.556,1.584-3.265c0.392-1.305,0.588-2.591,0.944-3.868c0.38-1.064,0.853-2.738,2.024-3.088
			c0.532-0.107,1.062,0.105,1.223,0.639s0.16,1.104,0.107,1.598c-0.053,0.745-0.159,1.597-0.16,2.371
			c-0.105,1.354-0.167,2.821,0.743,3.802c0.642,0.84,1.847,1.064,2.876,0.96c0.642,0,1.458-0.179,2.424-0.64
			c0.137-0.11,0.347-0.251,0.458-0.38c0.738,1.044,2.04,1.765,3.085,1.771c1.487,0.207,3.3-0.538,5.004-2.44
			c-0.103,0.091,0.617,0.837,0.64,0.837c0.315,0.318,0.631,0.531,0.957,0.673c1.289,0.625,2.875,0.393,4.048-0.46
			c0.973-0.683,1.595-1.402,1.678-2.04C170.758,148.795,170.649,148.594,170.013,148.369z M162.985,143.579
			c0,0.291,0,0.531-0.001,0.75c-0.108,0.909-0.416,1.703-0.744,2.55c-0.322,0.906-0.75,1.81-1.322,2.555
			c-0.485,0.639-1.243,1.703-2.192,1.596c-1.054-0.105-1.179-1.276-1.172-2.128c0.106-1.81,0.558-3.619,1.462-5.217
			c0.236-0.426,0.453-0.852,0.749-1.172c0.451-0.639,1.511-1.277,2.341-0.957C162.875,141.874,162.987,142.833,162.985,143.579z"/>
	</g>
	<g>
		<path fill="#63C6F1" d="M168.038,71.323c-1.859-1.188-3.889-2.183-6.12-3c-2.341-0.784-4.903-1.376-7.857-1.807
			c-2.146-0.302-4.373-0.416-6.589-0.44c-1.1-0.004-2.203,0.01-3.336,0.027c-5.644,0.385-9.157,0.996-12.626,2.594
			c-1.962,0.878-4.517,2.382-6.769,5.466c-3.818,5.221-4.563,12.041-4.925,17.451c-0.277,6.304-0.277,12.785,0.255,18.535
			c0.532,4.472,1.171,9.866,4.046,13.948c0.426,0.743,0.958,1.49,1.598,2.233c2.023,2.162,4.472,3.302,7.035,3.84
			c3.161,0.632,6.699,0.632,9.926,0.313c1.779-0.213,3.588-0.533,5.204-0.852c1.154-0.314,2.322-0.639,3.387-0.959
			c4.37-1.793,8.843-4.363,12.888-7.452c0.741-0.639,1.388-1.277,2.026-1.916c3.536-3.407,6.808-7.56,9.155-14.145
			c0.521-1.504,0.951-2.891,1.28-4.17c0.428-2.027,0.85-4.147,1.065-6.278C178.939,86.202,175.869,76.458,168.038,71.323z
			 M145.838,108.02c-1.489,0.422-3.191,0.549-4.653,0.247c-2.144-0.46-2.515-2.375-2.693-4.291
			c-0.425-3.622-0.213-7.283,0.004-10.957c0.36-4.367,1.168-7.665,6.144-8.196c5.886-0.632,10.572,2.67,11.21,8.403
			C156.488,99.6,151.768,106.48,145.838,108.02z"/>
	</g>
	<g>
		<path fill="#F68D52" d="M114.61,48.931l-0.075-0.02c0,0-3.833-2.377-8.624,1.502c0.32,1.127,0.426,2.444,0.426,3.999
			c0,9.024-5.456,12.739-6.255,13.239c0,0.011,0.008,0.025,0.023,0.034c0.35,0.054,7.387,0.869,13.152-6.635
			C119.22,53.331,114.61,48.931,114.61,48.931z"/>
		<path fill="#F68D52" d="M100.132,67.698c0,0-0.012-0.003-0.027-0.013c-0.023,0-0.023-0.001-0.023-0.001L100.132,67.698z"/>
		<path fill="#A8CF40" d="M99.976,67.686c0,0.001,0,0.004,0.002,0.006c0.002-0.002,0.005-0.003,0.013-0.007
			C99.976,67.685,99.976,67.685,99.976,67.686z"/>
		<path fill="#A8CF40" d="M100.029,67.704c0,0,0-0.003-0.011-0.007c-0.036,0.003-0.042,0.007-0.042,0.007H100.029z"/>
		<path fill="#A8CF40" d="M96.926,53.279c1.613,2.112,2.571,4.143,3.122,5.985c0.566-1.842,1.498-3.873,3.124-5.985
			c0.929-1.205,1.888-2.142,2.739-2.865c-1.385-5.938-5.882-6.413-5.882-6.413h-0.054c0,0-4.418,0.472-5.862,6.351
			C95.025,51.084,95.958,52.038,96.926,53.279z"/>
		<path fill="#A8CF40" d="M99.99,67.685c0.039,0,0.039-0.001,0.039-0.001l-0.036,0.011c0.01,0.001,0.017,0.001,0.025,0.002
			c0.011-0.007,0.024-0.021,0.064-0.045c0-0.028,0-0.063-0.034-0.106C100.029,67.618,100.025,67.662,99.99,67.685z"/>
		<path fill="#F68D52" d="M106.337,54.412c0-1.556-0.105-2.872-0.426-3.999c-0.852,0.723-1.811,1.66-2.739,2.865
			c-1.626,2.111-2.558,4.143-3.124,5.984c1.285,4.289,0.272,7.543,0,8.282c0.034,0.043,0.034,0.078,0.034,0.106
			C100.881,67.151,106.337,63.437,106.337,54.412z"/>
		<path fill="#FFD528" d="M106.337,54.412c0-1.556-0.105-2.872-0.426-3.999c-0.852,0.723-1.811,1.66-2.739,2.865
			c-1.626,2.111-2.558,4.143-3.124,5.984c1.285,4.289,0.272,7.543,0,8.282c0.034,0.043,0.034,0.078,0.034,0.106
			C100.881,67.151,106.337,63.437,106.337,54.412z"/>
		<path opacity="0.79" fill="#63C6F1" enable-background="new    " d="M99.976,67.698l0.018-0.003l-0.016-0.003
			C99.976,67.695,99.976,67.698,99.976,67.698z"/>
		<path fill="#7FD2F6" d="M93.641,54.412c0-1.582,0.159-2.918,0.473-4.061c-4.753-3.787-8.564-1.44-8.564-1.44l-0.053,0.02
			c0,0-4.579,4.4,1.347,12.119c5.733,7.434,12.654,6.707,13.133,6.636C99.497,67.392,93.641,63.746,93.641,54.412z"/>
		<path fill="#A8CF40" d="M99.99,67.685c-0.008,0.005-0.011,0.005-0.013,0.007l0.016,0.003l0.036-0.011
			C100.029,67.684,100.029,67.685,99.99,67.685z"/>
		<path opacity="0.79" fill="#63C6F1" enable-background="new    " d="M99.99,67.685c-0.008,0.005-0.011,0.005-0.013,0.007
			l0.016,0.003l0.036-0.011C100.029,67.684,100.029,67.685,99.99,67.685z"/>
		<path fill="#A8CF40" d="M100.048,67.545c-0.272-0.738-1.269-3.993,0-8.281c-0.551-1.842-1.509-3.873-3.122-5.985
			c-0.968-1.241-1.901-2.194-2.812-2.927c-0.313,1.142-0.473,2.478-0.473,4.061c0,9.333,5.856,12.98,6.334,13.273c0,0,0,0,0.016,0
			C100.025,67.662,100.029,67.618,100.048,67.545z"/>
		<path fill="#F68D52" d="M100.048,67.545c0.272-0.738,1.285-3.993,0-8.281C98.779,63.552,99.775,66.807,100.048,67.545z"/>
		<path fill="#A8CF40" d="M100.048,67.545c0.272-0.738,1.285-3.993,0-8.281C98.779,63.552,99.775,66.807,100.048,67.545z"/>
		<path fill="#63C6F1" d="M100.048,59.263c-0.551-1.842-1.509-3.874-3.122-5.984c-0.968-1.242-1.901-2.195-2.812-2.928
			c-0.313,1.143-0.473,2.479-0.473,4.061c0,9.334,5.856,12.98,6.334,13.273c0,0,0,0,0.016,0c0.035-0.023,0.038-0.067,0.058-0.14
			C100.32,66.807,101.333,63.552,100.048,59.263z"/>
	</g>
</g>
</svg>
