<?xml version="1.0" encoding="utf-8"?>
<!-- Generator: Adobe Illustrator 16.0.0, SVG Export Plug-In . SVG Version: 6.00 Build 0)  -->
<!DOCTYPE svg PUBLIC "-//W3C//DTD SVG 1.1//EN" "http://www.w3.org/Graphics/SVG/1.1/DTD/svg11.dtd">
<svg version="1.1" id="Layer_1" xmlns="http://www.w3.org/2000/svg" xmlns:xlink="http://www.w3.org/1999/xlink" x="0px" y="0px"
	 width="200px" height="200px" viewBox="0 0 200 200" enable-background="new 0 0 200 200" xml:space="preserve">
<rect fill="#FFFFFF" width="200" height="200" />
<g transform="translate(0.000000,1024.000000) scale(0.100000,-0.100000)">
	<path fill="#00ABBD" d="M647.549,9810.678c-2.773-0.4-12.871-1.777-22.773-2.969c-9.697-1.191-29.297-5.146-43.555-8.711
		c-177.402-45.342-303.935-211.475-326.699-429.072c-3.359-33.652-3.955-104.346-0.996-134.434
		c14.258-141.196,74.854-270.864,188.896-404.927c24.746-29.102,99.199-104.336,129.492-130.859
		c26.934-23.77,40.596-31.094,58.213-31.094c18.018-0.195,27.52,6.328,37.227,25.352c6.328,12.656,6.934,15.039,6.934,31.68
		c0,25.527-5.146,35.84-28.125,57.207c-118.398,109.492-194.824,213.652-237.197,323.34
		c-15.244,39.004-25.146,77.617-33.066,126.523c-3.965,24.751-3.369,103.755,0.986,131.479
		c13.271,84.736,47.129,154.834,100.391,208.096c57.422,57.217,124.941,85.732,202.949,85.732c33.066,0,51.484-3.164,82.363-14.258
		c60.391-21.982,119.004-77.021,158.994-148.896l7.139-13.262l-14.062-26.338c-26.338-49.102-58.018-117.412-79.6-172.061
		c-43.555-109.692-61.182-189.888-55.244-250.278c8.32-83.945,52.676-149.688,126.318-187.695
		c64.551-33.457,123.164-33.457,187.715,0c96.621,49.902,142.764,149.297,122.959,265.117
		c-14.062,80.977-55.244,190.874-121.182,323.335l-24.16,48.516l11.299,19.404c41.777,72.266,101.562,124.541,166.309,145.723
		c62.373,20.391,135.43,12.871,199.98-20.596c28.516-14.844,49.297-30.283,73.652-54.443
		c31.094-31.084,53.662-64.551,71.484-106.133c24.551-57.217,35.244-117.803,32.871-186.904
		c-5.146-151.284-75.83-295.425-215.82-440.757c-13.662-14.062-35.645-35.449-48.711-47.324
		c-20.195-18.008-25.146-23.574-30.488-34.453c-5.742-11.68-6.338-14.648-6.338-31.074c0-16.641,0.596-19.023,6.934-31.68
		c9.697-19.023,19.199-25.547,37.217-25.352c17.637,0,31.289,7.324,58.223,31.094c30.283,26.523,104.736,101.758,129.492,130.859
		c114.043,134.062,174.629,263.73,188.887,404.927c2.969,30.088,2.383,100.781-0.996,134.434
		c-22.559,215.43-147.705,381.748-322.344,428.086c-37.617,9.893-58.203,12.666-97.412,12.666c-40.391,0-59.795-2.969-93.857-13.857
		c-78.008-25.342-164.141-94.844-223.145-179.59c-4.15-6.143-8.115-11.084-8.711-11.084c-0.586,0-6.328,7.324-12.871,16.23
		c-74.248,101.377-162.949,165.332-254.229,183.75C714.668,9809.682,659.228,9812.855,647.549,9810.678z M1017.021,9309.936
		c61.973-130.679,93.262-222.358,88.906-260.366c-4.766-41.387-28.32-68.516-72.676-83.359c-25.137-8.516-41.377-8.516-66.523,0
		c-36.035,12.07-58.213,31.875-67.91,60.977c-10.898,32.285-2.969,75.039,28.906,156.035
		c21.377,54.243,69.492,159.976,72.656,158.989C1001.182,9341.811,1008.701,9327.357,1017.021,9309.936z"/>
</g>
</svg>
