<?xml version="1.0" encoding="utf-8"?>
<!-- Generator: Adobe Illustrator 16.0.0, SVG Export Plug-In . SVG Version: 6.00 Build 0)  -->
<!DOCTYPE svg PUBLIC "-//W3C//DTD SVG 1.1//EN" "http://www.w3.org/Graphics/SVG/1.1/DTD/svg11.dtd">
<svg version="1.1" id="Layer_1" xmlns="http://www.w3.org/2000/svg" xmlns:xlink="http://www.w3.org/1999/xlink" x="0px" y="0px"
	 width="1000px" height="1000px" viewBox="0 0 1000 1000" enable-background="new 0 0 1000 1000" xml:space="preserve">
<path fill="#FFFFFF" d="M63.947,370.524l5.109-154.993h497.337l3.408,154.993h-52.8c0-53.367-5.677-84.593-17.032-93.676
	c-11.354-9.084-51.096-13.626-119.225-13.626v427.505c0,26.116,3.123,41.161,9.368,45.137c6.246,3.973,27.536,5.961,63.871,5.961
	v42.579H179.767v-42.579c36.334,1.136,57.625-0.568,63.871-5.109c6.246-4.544,9.368-19.87,9.369-45.986V263.222
	c-68.129,0-107.586,4.543-118.374,13.626c-10.785,9.084-16.179,40.31-16.179,93.677L63.947,370.524L63.947,370.524z
	 M632.818,784.404h102.193V215.532H632.818L784.404,63.947l151.585,151.586H835.5v568.873h100.491L784.404,935.991L632.818,784.404z
	"/>
</svg>
